<svg xmlns="http://www.w3.org/2000/svg" xmlns:xlink="http://www.w3.org/1999/xlink" width="500" zoomAndPan="magnify" viewBox="0 0 375 187.499995" height="250" preserveAspectRatio="xMidYMid meet" version="1.0"><defs><g/></defs><g fill="#000000" fill-opacity="1"><g transform="translate(126.422791, 112.076851)"><g><path d="M 10.71875 -39.5 C 9.28125 -39.5 8.15625 -39.882812 7.34375 -40.65625 C 6.539062 -41.4375 6.140625 -42.5 6.140625 -43.84375 C 6.140625 -45.132812 6.539062 -46.171875 7.34375 -46.953125 C 8.15625 -47.742188 9.28125 -48.140625 10.71875 -48.140625 C 12.125 -48.140625 13.234375 -47.742188 14.046875 -46.953125 C 14.867188 -46.171875 15.28125 -45.132812 15.28125 -43.84375 C 15.28125 -42.5 14.867188 -41.4375 14.046875 -40.65625 C 13.234375 -39.882812 12.125 -39.5 10.71875 -39.5 Z M 7.09375 0 L 7.09375 -33.0625 L 14.359375 -33.0625 L 14.359375 0 Z M 7.09375 0 "/></g></g></g><g fill="#000000" fill-opacity="1"><g transform="translate(148.222997, 112.076851)"><g><path d="M 3.828125 0 L 3.828125 -5.90625 L 21.59375 -27.09375 L 3.828125 -27.09375 L 3.828125 -32.953125 L 29.640625 -32.953125 L 29.640625 -27.09375 L 12.3125 -5.90625 L 29.640625 -5.90625 L 29.640625 0 Z M 3.828125 0 "/></g></g></g><g fill="#000000" fill-opacity="1"><g transform="translate(181.588567, 112.076851)"><g><path d="M 3.828125 0 L 3.828125 -5.90625 L 21.59375 -27.09375 L 3.828125 -27.09375 L 3.828125 -32.953125 L 29.640625 -32.953125 L 29.640625 -27.09375 L 12.3125 -5.90625 L 29.640625 -5.90625 L 29.640625 0 Z M 3.828125 0 "/></g></g></g><g fill="#000000" fill-opacity="1"><g transform="translate(214.954138, 112.076851)"><g><path d="M 1.359375 -32.953125 L 9.59375 -32.953125 L 18.90625 -6.34375 L 17.53125 -6.34375 L 25.3125 -32.953125 L 32.71875 -32.953125 L 20.125 6.171875 C 18.925781 9.898438 17.398438 12.640625 15.546875 14.390625 C 13.691406 16.148438 11.410156 17.03125 8.703125 17.03125 C 7.171875 17.03125 5.6875 16.84375 4.25 16.46875 C 2.820312 16.09375 1.367188 15.523438 -0.109375 14.765625 L -0.109375 8.328125 C 1.117188 9.140625 2.3125 9.734375 3.46875 10.109375 C 4.632812 10.484375 5.8125 10.671875 7 10.671875 C 8.15625 10.671875 9.15625 10.34375 10 9.6875 C 10.84375 9.03125 11.5625 8.140625 12.15625 7.015625 C 12.757812 5.890625 13.269531 4.628906 13.6875 3.234375 L 14.671875 0 Z M 1.359375 -32.953125 "/></g></g></g><path stroke-linecap="butt" transform="matrix(3.738127, 0, 0, 3.740026, 55.37002, 41.877883)" fill="none" stroke-linejoin="miter" d="M 0.000287225 0.000273672 L 73.838242 0.000273672 " stroke="#000000" stroke-width="1" stroke-opacity="1" stroke-miterlimit="4"/><path stroke-linecap="butt" transform="matrix(3.747202, 0, 0, 3.740026, 54.308264, 145.151882)" fill="none" stroke-linejoin="miter" d="M 0.0000879219 0.000123425 L 40.723183 0.000123425 " stroke="#000000" stroke-width="1" stroke-opacity="1" stroke-miterlimit="4"/><path stroke-linecap="butt" transform="matrix(0.00000000000000023, -3.751504, 3.740026, 0.000000000000000229, 56.177018, 146.646622)" fill="none" stroke-linejoin="miter" d="M -0.00048403 -0.00033079 L 28.513081 -0.00033079 " stroke="#000000" stroke-width="1" stroke-opacity="1" stroke-miterlimit="4"/><path stroke-linecap="butt" transform="matrix(0.000000000000000229, -3.732216, 3.740026, 0.000000000000000229, 329.655179, 124.335817)" fill="none" stroke-linejoin="miter" d="M -0.0000322589 0.000286484 L 22.448091 0.000286484 " stroke="#000000" stroke-width="1" stroke-opacity="1" stroke-miterlimit="4"/></svg>